<svg width="64" height="73" viewBox="0 0 64 73" fill="none" xmlns="http://www.w3.org/2000/svg">
<path d="M60 39.5V25C60 11.7452 49.2548 1 36 1H28C14.7452 1 4 11.7452 4 25V39.5" stroke="#2E3A59" stroke-width="2"/>
<path d="M9 31C9 18.2975 19.2975 8 32 8C44.7025 8 55 18.2975 55 31V39C55 51.7025 44.7025 62 32 62C19.2975 62 9 51.7025 9 39V31Z" stroke="#2E3A59" stroke-width="2"/>
<path d="M29.5 70.5L36 70.5C49.2548 70.5 60 59.7548 60 46.5L60 36" stroke="#2E3A59" stroke-width="2"/>
<rect x="1" y="32" width="6" height="14" rx="3" stroke="#2E3A59" stroke-width="2"/>
<rect x="57" y="32" width="6" height="14" rx="3" stroke="#2E3A59" stroke-width="2"/>
</svg>
